<svg id="Carbonite_Logo_Redesign" data-name="Carbonite Logo Redesign" xmlns="http://www.w3.org/2000/svg" xmlns:xlink="http://www.w3.org/1999/xlink" viewBox="0 0 2135.94 371.8"><defs><style>.cls-1{fill:none;}.cls-2{fill:#495252;}.cls-3{fill:#495151;}.cls-4{clip-path:url(#clip-path);}.cls-5{fill:url(#radial-gradient);}.cls-6{fill:url(#radial-gradient-2);}.cls-7{fill:url(#linear-gradient);}.cls-8{fill:url(#linear-gradient-2);}.cls-9{fill:url(#linear-gradient-3);}</style><clipPath id="clip-path"><path class="cls-1" d="M1928.21,79.26c-4.2,0-8.15.19-11.76.52-11.75.87-27,4.3-37.87,9.18-37.28,16.05-54.19,44.74-59.93,77.15-4.88,28.69.29,70.84,32.12,100.09,33,30.11,84.32,31.55,114.44,24.1,36.72-9.75,60.8-27.82,73.71-66,10.32-31,7.75-73.7-16.06-104.11-25.76-32.26-66.1-41-94.64-41h0"/></clipPath><radialGradient id="radial-gradient" cx="630.1" cy="2465.26" r="6.4" gradientTransform="translate(13251.18 66613.11) rotate(180) scale(17.96 26.95)" gradientUnits="userSpaceOnUse"><stop offset="0" stop-color="#94bc42"/><stop offset="0.46" stop-color="#93ba42"/><stop offset="0.68" stop-color="#8db241"/><stop offset="0.84" stop-color="#85a63f"/><stop offset="0.97" stop-color="#78943c"/><stop offset="1" stop-color="#758f3b"/></radialGradient><radialGradient id="radial-gradient-2" cx="3177.42" cy="1509.73" r="519.46" gradientTransform="matrix(0.27, 0, 0, -0.27, 1071.83, 692.37)" gradientUnits="userSpaceOnUse"><stop offset="0" stop-color="#fff"/><stop offset="0.03" stop-color="#fbfcf3"/><stop offset="0.21" stop-color="#dfe6a4"/><stop offset="0.3" stop-color="#d4de85"/><stop offset="0.53" stop-color="#aac657"/><stop offset="0.76" stop-color="#8eb43d" stop-opacity="0"/></radialGradient><linearGradient id="linear-gradient" x1="1930.86" y1="936.28" x2="1930.86" y2="1019.87" gradientTransform="matrix(1, 0, 0, -1, 0, 1082)" gradientUnits="userSpaceOnUse"><stop offset="0" stop-color="#93b93d"/><stop offset="0.36" stop-color="#b8d17f"/><stop offset="1" stop-color="#fff"/></linearGradient><linearGradient id="linear-gradient-2" x1="1930.85" y1="298.06" x2="1930.85" y2="74.96" gradientUnits="userSpaceOnUse"><stop offset="0" stop-color="#4f4e51"/><stop offset="1" stop-color="#fff"/></linearGradient><linearGradient id="linear-gradient-3" x1="1930.9" y1="287.21" x2="1930.9" y2="85.84" gradientUnits="userSpaceOnUse"><stop offset="0" stop-color="#dcdddd"/><stop offset="0.01" stop-color="#d7d8d9"/><stop offset="0.11" stop-color="#babbbc"/><stop offset="0.21" stop-color="#a2a3a4"/><stop offset="0.33" stop-color="#8f9192"/><stop offset="0.47" stop-color="#828486"/><stop offset="0.64" stop-color="#7a7c7e"/><stop offset="1" stop-color="#787a7c"/></linearGradient></defs><title>Carb_Dot_Reconstruct_Final_RGB-DARK_TM</title><path class="cls-2" d="M579.54,74c22.2,0,57.35,1.54,76.47,30.21,11.1,17.28,14.81,45.64,6.78,65.38-6.17,15.1-14.8,24.67-32.07,32.07,11.1,10.17,15.34,21.57,21.82,35.46l26,60.12H609.14L589.41,251c-13.88-32.69-11.1-33-28.67-33H547.17v79.23h-70V74Zm-32.37,98.36H557c16,0,29-1.23,35.46-10.48,4.32-5.86,5.86-17.27,2.46-24.36-7.4-16-23.13-17-37.92-17h-9.87Z"/><path class="cls-2" d="M778.47,74c21.89,0,63.52-.62,78.63,34.22,6.79,15.42,7.64,39.72-4.74,55.81a50.94,50.94,0,0,1-11.87,11.28c19.42,7.71,28.18,23,30.47,37.72,2.79,18,2,37.39-11.86,55.6-23.12,29.9-61.82,28.59-83.4,28.59H686V74Zm-14.18,88.18c17.58,0,22.82-1.85,29.6-12.33,3.09-4.93,2.47-16.34-1.23-21-7.09-8.63-15.42-9.55-29-9.55H756v42.85ZM764,249.75c11.41,0,32.37,1.86,40.7-9.86,4.62-6.48,4.32-16.35.92-22.51-7.71-13-28.37-10.8-40.08-10.8H756v43.17Z"/><rect class="cls-2" x="1336.73" y="74" width="70.01" height="223.23"/><polygon class="cls-2" points="1612.74 74 1612.74 128.57 1549.53 128.57 1549.53 297.23 1479.85 297.23 1479.85 128.57 1416.33 128.57 1416.33 74 1612.74 74"/><polygon class="cls-2" points="1780.23 74 1780.23 127.65 1692.36 127.65 1692.36 158.8 1773.45 158.8 1773.45 210.6 1691.84 210.6 1691.84 243.37 1782.7 243.37 1782.7 297.23 1622.35 297.23 1622.35 74 1780.23 74"/><path class="cls-2" d="M1108.55,163.59c-5.94-34.85-23.46-65.68-62-82.94-11.28-5.25-27-8.94-39.19-9.87a209.36,209.36,0,0,0-29.85,0c-12.17.92-27.91,4.62-39.19,9.87-38.6,17.26-56.11,48.1-62,82.94a129.72,129.72,0,0,0-1.64,22.11,129.72,129.72,0,0,0,1.64,22.11c5.93,34.85,23.45,65.68,62,82.94,11.28,5.25,27,8.94,39.19,9.87a209.37,209.37,0,0,0,29.85,0c12.17-.92,27.91-4.62,39.19-9.87,38.59-17.26,56.11-48.1,62-82.94a130.18,130.18,0,0,0,1.64-22.11,130.18,130.18,0,0,0-1.64-22.11M1032,228.06c-8.92,15.51-24.75,21.75-39.67,21.78s-30.75-6.27-39.67-21.78c-6-10.66-8.82-26.48-8.37-42.36-.46-15.88,2.33-31.7,8.37-42.36,8.92-15.51,24.75-21.75,39.67-21.78s30.75,6.27,39.67,21.78c6,10.66,8.82,26.48,8.36,42.36.46,15.88-2.33,31.7-8.36,42.36"/><path class="cls-2" d="M389.52,74H320.16l-81,223.23h69.38l12.95-41.93h66.64l12.95,41.93h69.37Zm-56,136,22.51-66.92L377.34,210Z"/><path class="cls-3" d="M144.65,134.69c18.43-21.54,73.25-12.75,89.39-6.23V74.72c-25-4.39-61-6.71-87.51-1.56-35.47,6.9-67,28.55-80.48,66.77a138.11,138.11,0,0,0-7,46.16c-.34,18.48,3.15,35.15,7,45.87,14.18,40.12,38.85,60,80.48,66.77,26.58,4.58,62.46,2.83,87.51-1.56V243.36c-17,7.35-67,11.1-86.89-6.5-14.07-12.44-18-39.24-17.56-50.92-.41-11.68-.52-33,15.06-51.25"/><polygon class="cls-2" points="1263.26 74 1252.78 74 1252.78 185.81 1173.34 74 1117.72 74 1117.72 95.74 1117.72 297.23 1175.68 297.23 1187.09 297.23 1187.09 189.06 1264.68 297.23 1322.15 297.23 1322.15 275.49 1322.15 74 1263.26 74"/><path class="cls-2" d="M2062.89,74.07V77h-5.66V91.75h-3.51V77h-5.66V74.07ZM2082,91.75l-.65-10.4c-.07-1.37-.07-3.06-.13-4.94h-.2c-.45,1.56-1,3.64-1.49,5.27l-3.18,9.82h-3.64l-3.19-10.08c-.32-1.36-.84-3.44-1.23-5h-.19c0,1.63-.07,3.32-.13,4.94l-.65,10.4h-3.38l1.3-17.68h5.27l3.05,8.65c.39,1.36.72,2.66,1.17,4.49h.06c.46-1.63.84-3.12,1.24-4.42l3.05-8.71h5.07l1.36,17.68Z"/><g id="Dot"><g class="cls-4"><rect class="cls-5" x="1813.77" y="79.26" width="235.47" height="218.49"/></g><g class="cls-4"><path class="cls-6" d="M1822.39,200c38.81-31.51,121.49-38.42,171.67-21.7,62.2,19.91,77,49.21,68.35,83.75-7.66,28.66-45,74.66-74.08,106.15-28.67,30-52.61,35.21-72.36,30.47-22.11-5.39-40.5-21.76-68.85-56.48-8.47-10.15-19.29-24-26.7-34.88-17.19-25.87-45.59-69.43,2-107.31"/><path class="cls-7" d="M1997.7,112.43c1.06,16.49-29,37.86-66.85,39-37.8-1.14-67.9-22.58-66.85-39,1.29-17.89,28.78-33,66.85-32.91s65.59,15,66.85,32.91"/></g><path class="cls-8" d="M1856.08,260c-28.89-26.53-34.2-65.31-29.54-92.66,6.09-34.4,24.07-57.58,55.1-71,9.43-4.23,23.57-7.63,35.39-8.5,3.53-.32,7.26-.49,11.09-.49,17.53,0,61.29,3.69,88.5,37.79,22.71,29,23.73,69.39,14.69,96.49-11.2,33.13-30.9,50.65-67.78,60.45a133.63,133.63,0,0,1-31.43,3.56c-17.9,0-51.59-3.34-76-25.68m72-185c-4.37,0-8.47.19-12.22.53-12.21.9-28,4.47-39.33,9.54-38.72,16.67-56.29,46.46-62.25,80.12-5.06,29.8.3,73.58,33.36,104,23.59,21.54,56.21,28.94,84.45,28.94a146.51,146.51,0,0,0,34.41-3.92c38.13-10.13,63.16-28.9,76.55-68.52,10.71-32.17,8-76.54-16.68-108.12C1999.67,84.06,1957.81,75,1928.17,75h0"/><path class="cls-9" d="M1857.14,258.86c-28.43-26.13-33.66-64.27-29.07-91.25,6-33.84,23.72-56.68,54.21-69.82,9.28-4.16,23.3-7.53,34.91-8.37,3.47-.32,7.16-.48,11-.48,17.31,0,60.48,3.62,87.29,37.18,22.35,28.55,23.36,68.31,14.44,95-11,32.56-30.35,49.78-66.68,59.43a131.36,131.36,0,0,1-31,3.51c-17.67,0-50.93-3.27-75-25.26M1917,86.33c-11.9.88-26.33,4.35-35.89,8.63-31.51,13.57-49.83,37.17-56,72.14-4.73,27.79.67,67.1,30,94,24.85,22.69,59,26.09,77.1,26.09a134.71,134.71,0,0,0,31.81-3.6c37.5-10,57.45-27.76,68.84-61.46,9.19-27.53,8.12-68.48-14.94-98-27.65-34.62-71.95-38.36-89.72-38.36-3.89,0-7.67.16-11.2.49"/></g></svg>