<?xml version="1.0" encoding="utf-8"?>
<!-- Generator: Adobe Illustrator 17.1.0, SVG Export Plug-In . SVG Version: 6.00 Build 0)  -->
<!DOCTYPE svg PUBLIC "-//W3C//DTD SVG 1.1//EN" "http://www.w3.org/Graphics/SVG/1.1/DTD/svg11.dtd">
<svg version="1.1" id="Layer_1" xmlns="http://www.w3.org/2000/svg" xmlns:xlink="http://www.w3.org/1999/xlink" x="0px" y="0px"
	 viewBox="0 0 182.7 100.4" enable-background="new 0 0 182.7 100.4" xml:space="preserve">
<g>
	<g>
		<path fill="#F15B41" d="M0,40V0.6h10.5l6.8,25.8h0.1l6.8-25.8h10.5V40h-6.4V9h-0.1l-8,31h-5.7l-8-31H6.4v31H0z"/>
		<path fill="#F15B41" d="M37.4,40l9.8-39.4h9.6L66.3,40h-7.2l-1.9-8.3H46.8L44.7,40H37.4z M48.2,25h7.5L52,9.1h-0.1L48.2,25z"/>
		<path fill="#F15B41" d="M86.7,36.7c-2,2.3-4.2,3.8-7,3.8c-7.3,0-12.4-3.5-12.4-13.2V13.3c0-9.7,5.1-13.2,12.4-13.2
			c7.7,0,11.8,4.4,12.1,13.4h-7.5c0-5.1-1.9-6.7-4.6-6.7c-3,0-4.9,1.2-4.9,5.6v16c0,4.4,1.9,5.6,4.9,5.6c2.8,0,4.6-2.1,4.6-5.5V26
			H79v-6.2h12.8V40h-3.9L86.7,36.7z"/>
		<path fill="#F15B41" d="M95.1,28.1v-6h13.4v6H95.1z"/>
		<path fill="#F15B41" d="M112.1,40V0.6h8.2l10.5,23.3h0.1V0.6h6.9V40h-7.2l-11.5-25.4H119V40H112.1z"/>
		<path fill="#F15B41" d="M148.4,26.8v3.9c0,2.9,1.7,4.3,4,4.3c2.9,0,4-1.9,4-4.1h6.9c-0.3,6.1-4,9.7-10.9,9.7
			c-6.5,0-10.9-4-10.9-10.5v-9.7c0-6.5,4.4-10.5,10.9-10.5c6.4,0,10.9,4,10.9,10.1v6.9H148.4z M156.5,21.2v-1.6c0-2.6-1.3-4.3-4-4.3
			s-4,1.6-4,4.3v1.6H156.5z"/>
		<path fill="#F15B41" d="M165.2,17.2v-5.6h2.7V3.6h6.9v8.1h4.4v5.6h-4.4v15.2c0,1.5,1.3,2.2,3.1,2.2c0.5,0,0.9,0,1.4-0.1v5.8
			c-1.3,0.2-2.6,0.3-3.9,0.3c-4.5,0-7.4-1.6-7.4-5.9V17.2H165.2z"/>
	</g>
	<g>
		<path fill="#273756" d="M19.7,59.1c0,0-4.8,7.2-0.7,19.3c0,0,0.3,0.9,1.2-0.9c0,0,6.2-5,14.2-3.9c0,0-1,0.9-0.7,1.5
			c0.3,0.6,1,1.8,1,1.8s-1.4,0.6-0.8,1.8c0,0-0.5,1.9,0.3,2.3c0,0-1.1,0.6-0.8,1.1c0.3,0.5,2.4,2.6,2.9,2.2c0.4-0.4,0.6-0.7,1.1,0.1
			c0.5,0.8,0.9,2.3,0.9,2.3s-0.9,1.8,0.4,4c1.3,2.2,3.4,10,3.4,10h42.8c0,0,2.5-1.5,1.8-4.4c0,0,0.6-2.4-1.2-3c0,0,1.8-1.6-0.7-1.7
			l-1.4-0.7c0,0,1.1-1.7,1.3-2.6c0,0,1.6-1.3,0.2-2.4c0,0,0.2-4.8-4.7-5.6c-4.9-0.8-6.5,2.4-6.3,6.4c0,0-1.2,1.4-2.1,0.1
			c0,0-2-3.4-4.6-4.6l-1.3-0.9c0,0,0.5-2.5-1.9-3c0,0,0.1-2.2,0.6-2.3c0,0,4.2,3.9,8,1.9c3.8-1.9,3.6-5.3,3.5-7c0,0,0.4-1.7-0.7-2.2
			c-1.1-0.4-2.2-0.9-2.2-0.9s0.1-0.8-0.8-0.7c0,0,0.3-1.5-0.6-2.4c0,0,0.5-1.2,0.2-2.7c-0.4-1.5-3-5.4-8.4-5.2c0,0-2.5-0.4-3.3,0.6
			c0,0-3.1-0.6-4.5,1c0,0-3.2,1.9-3.3,4.7c0,0-3.2,1.9-3,2.9c0.2,1,0.7,1.3,0.7,1.3s0,0.5-0.4,0.6c-0.4,0.2-0.5,0.6,0.1,1.1
			c0.6,0.4,0.8,1.4,0.7,1.8c-0.1,0.4-2.1,1-0.9,2.5c0,0-0.4,2.5,1.4,2.3c0,0,2.2-0.4,3,0.4c0.7,0.8,1.1,1.5,0.7,1.9
			c-0.4,0.4-3.4,1.1-4.2,3.5c-0.8,2.4-1.7,3.9-1.7,3.9s-1.7,2.1-2.2,4.3c-0.4,2.2-1.2,1.4-1.4,1.1c-0.1-0.3-1.7-3.5-1.7-3.5
			s-1.8-5.6-2.2-6c0,0,1.4-1.9,1.3-2.8c-0.1-0.9-0.3-3.1-1-3.4c0,0,0.5-0.3,1.8-0.2c1.3,0.2,2.7-0.1,2.7-0.1l0.1-0.9l1.1-0.6v-5.3
			l-1.2-0.7l-0.3-0.8l-0.7-0.7l-2.7-0.2l-0.8,0.7L37,65.7c0,0-1.7,0.8-3.8,0.3s-6-0.2-12.6-5.7C20.5,60.2,20.3,58.8,19.7,59.1z"/>
		<path fill="#273756" d="M127.1,100.4H171c0,0-0.2-0.5,0.4-2.2c0.6-1.7,0-2.2,2-3.4c2-1.3,3.7-4.2,4.8-5.1
			c1.1-0.8,6.1-7.2,4.1-17.7l-1.9-10.7l-1.1-2.3c0,0-0.3-4-5.4-5.6c-5.1-1.6-0.3-0.2-0.3-0.2l-1.2-1l-0.9-0.1l-4-5.6
			c0,0-0.5-6.4-5-8.7c0,0-3.3-0.9-4.7,0.4c0,0-2.4-0.4-2.9,1.3c0,0-1.6,0.5-1.4,1.5c0,0-2.6,0.2-2.7,2.4c0,0-1.3-0.3-1.2,0.9
			c0.1,1.2,0.4,1.8,0.4,1.8l-0.1,1.5l3.9,3.4c0,0,3.5,2,7.4,1.2l2.2,2.7l-0.4,2.8c0,0-0.4,0.8,0.9,1.6c0,0,0.1,3.9,1.5,4.5
			c0,0,0.2,3.7,1.3,4.8l0,7l-0.7,1.4l-3.8,1.3l-6.6-0.5l0.1-1l-3-2.3l0.4-2c0,0,1.8-2.2,1-5.1c0,0,1-5.2-3.2-9.8s-11.7-1.2-12.9,2
			c0,0-4.4,1.8-4.5,3.9c0,0,0.9,3.4,4.2,3.4l0.4,0.8c0,0-0.9,8,1.9,10.5l-4.6,5.1l-1.6,1.7l-0.3,0.8l-2.1,1.5l-1.1,1.9l-1.8,1.7
			l0.5,1.1c0,0-1.4,2.9-1.3,4.6L127.1,100.4z"/>
		<g>
			<path fill="#273756" d="M119.4,51.5c0-0.1-0.1-0.2-0.2-0.3C119.3,51.3,119.4,51.4,119.4,51.5L119.4,51.5z"/>
			<path fill="#273756" d="M122.5,66.8C122.5,66.8,122.5,66.8,122.5,66.8c0.1,0,0.1-0.1,0.1-0.1C122.6,66.8,122.6,66.8,122.5,66.8
				C122.5,66.8,122.5,66.8,122.5,66.8z"/>
			<path fill="#273756" d="M122.2,58.6L122.2,58.6c-0.1,0-0.1,0-0.2,0C122.1,58.6,122.2,58.6,122.2,58.6z"/>
			<path fill="#273756" d="M121.9,58.5c-0.1,0-0.2-0.1-0.2-0.2h0C121.7,58.4,121.8,58.5,121.9,58.5z"/>
			<path fill="#273756" d="M122.4,66.8c-0.1,0-0.2-0.1-0.2-0.2C122.3,66.7,122.4,66.8,122.4,66.8z"/>
			<path fill="#273756" d="M110.2,47.7c0.1,0,0.1,0.1,0.2,0c0,0,0-0.1,0-0.1c0,0,0,0.1,0,0.1C110.4,47.8,110.3,47.8,110.2,47.7z"/>
			<path fill="#273756" d="M123.4,63C123.5,62.6,123.1,62.8,123.4,63L123.4,63z"/>
			<path fill="#273756" d="M114.6,48.8C114.6,48.8,114.6,48.8,114.6,48.8C114.6,48.8,114.6,48.8,114.6,48.8
				C114.6,48.8,114.6,48.8,114.6,48.8C114.6,48.8,114.6,48.8,114.6,48.8z"/>
			<path fill="#273756" d="M114.6,48.9c0,0.1,0.2,0.2,0.3,0.2c0,0,0-0.1,0-0.1c0,0,0,0.1,0,0.1C114.8,49.1,114.6,49,114.6,48.9z"/>
			<path fill="#273756" d="M121.9,58.5c0.1,0,0.1,0,0.2,0c0.1,0,0.1,0,0.2,0c0-0.1-0.1-0.2-0.2-0.2c-0.1,0-0.2-0.1-0.3-0.1
				C121.7,58.4,121.8,58.5,121.9,58.5z"/>
			<path fill="#273756" d="M114.6,48.8C114.6,48.8,114.6,48.8,114.6,48.8C114.6,48.8,114.6,48.8,114.6,48.8
				c-0.1,0.1-0.1,0.1-0.1,0.1c0,0.1,0.2,0.2,0.3,0.2c0,0,0-0.1,0-0.1C114.8,48.9,114.7,48.8,114.6,48.8z"/>
			<path fill="#273756" d="M110.2,47.5c0,0,0,0.1,0,0.1c0,0,0,0.1,0.1,0.1c0,0,0,0,0.1,0c0.1,0,0.1,0.1,0.2,0c0,0,0-0.1,0-0.1
				C110.4,47.5,110.2,47.4,110.2,47.5z"/>
			<path fill="#273756" d="M122.4,66.8C122.4,66.8,122.5,66.8,122.4,66.8C122.5,66.8,122.5,66.8,122.4,66.8c0.1,0,0.1-0.1,0.1-0.1
				c0-0.1-0.2-0.2-0.3-0.2c0,0,0,0.1,0,0.1C122.3,66.7,122.4,66.8,122.4,66.8z"/>
			<path fill="#273756" d="M126.6,88.2c0,0-0.9-1.3-1.7-1.6c0,0-0.3-1.7-0.7-3c-0.4-1.3,0.1-3.5-1.9-4.5l-5.4-2.8c0,0-1.8-2-1.5-3.4
				c0.3-1.3,2.5-1.7,2.5-1.7c0.4,0.8,0.2,1.3,0.6,2.2c0.7-0.6,0.7-0.2,1.9-0.1c0.3-0.8-0.4-0.9-0.1-1.7c0.4,0,1,0.2,1.1-0.2
				c-0.6-1.3,0.4-0.2,0.9-1c0-0.7-1.1-0.4-1.3-1c1.8-1.3,1.9,2,3.1,1.2c0.2-1.3-1-1.4-1.1-2.4c0.6-0.2,1.2-1.2,0.7-1.9
				c0.5,0,1.3,0.4,1.1-0.4c-0.1-0.4-0.5-0.6-1-0.7c-0.1-0.9,1-0.2,0.7-1.3c-0.6-0.4-1.2,0.7-1.3-0.1c0.3,0,0.3-0.4,0.3-0.8
				c-0.4-0.2,0.1-0.3,0,0c0.6,0.1,1,0,1.1-0.4c-0.5-0.7-2-0.7-2-1.9c1.1,0,1.8,0.9,2.4,0c-0.1-0.8-1.6-0.5-2-1.1
				c0.1-0.9,0.9-0.7,0.7-1.9c-0.7-0.4-0.1-1.8-0.6-2.3c-0.7,0-1.5,1.4-2.2,0.3c0.8,0.2,0.9-0.5,0.9-1.3c-0.5-0.9-2.1,0.3-2.1-0.8
				c0.7-0.8,2,1,2.4-0.3c0-0.9-1.3-0.6-2.1-0.8c0.2-0.7,0.5-1.2,0.5-2.2c-0.4-0.3-0.7,0.5-0.8,0.5c-0.4,0-0.4-0.5-0.7-0.6
				c-0.6-0.2-1.4-0.4-2.1-0.8c0.8-0.2,1.3-0.7,1.3-1.8c-1.1-0.1-1,1.5-2.3,1.2c0.3-1.4-0.6-0.6-1-0.4c0.1-0.7,0-1.2-0.7-1.2
				c-0.7,0.1-1.1,0.7-1.7,0.9c0.1-0.7,0.2-1.4-0.4-1.5c-0.6,1.3-1.3-0.4-2.1-0.5c-0.4,0.8-1.2,1-1.5,1.8c-0.1-0.3-0.7-1.4-1-0.7
				c-0.1,1.5,0,1.4-0.3,2.8c0,0-8.7,3.8-9.3,7.2l-2.2-2.8c0,0-1.7-3.8-4-4.9c0,0,0.6-2.4-2.4-4.1c0,0-1.5-0.6-1.6-1.7
				c-0.1-1.1-1.3-1.3-1.9-1.5c0,0-2.5-4.8-3.5-5.2c-1-0.3-1.8-0.9-2.3-0.3c0,0-1.1-0.3-1.5,0.8c0,0-2,0.1-2.5,2.2
				c0,0-1.4,2.7,0.5,3.4c0,0-0.5,3.1,2.2,3.3c0,0,3.2-0.1,4.4,1.4c0,0,1.4,0.9,0.7,3.2c0,0-1.4,2.7,1.1,4.2c0,0,0.3,4.2,1.7,4.7
				c0,0,0.8,4.3,3.1,7.4l3.9,7.5c0,0,1.4,5.6,2.7,6.5c0,0,1.5,4.6,0.7,4.6c-0.9-0.1-1.9-0.6-2,1.1c-0.1,1.7,0.5,5.1-0.3,6.4
				c-0.7,1.3-2.8,2.4-3.2,3.9c-0.3,1.5-0.7,3.2-0.7,3.2h32.8l0.7-6.2c0,0,1,0.6,1.4-1.3c0,0,0.7-0.8,1.4-2.1
				C127.9,89.5,126.6,88.2,126.6,88.2z M118.2,50.9c0.2,0,0.3,0,0.5,0.1c0.3,0.1,0.5,0.2,0.6,0.3c0.1,0.1,0.1,0.2,0.2,0.3h0h0
				c-0.4-0.1-1.1,0.1-1.3-0.2c0,0,0-0.1,0-0.2C118.1,51.1,118.1,51,118.2,50.9z"/>
			<path fill="#273756" d="M121.7,58.3L121.7,58.3c0.1,0,0.2,0.1,0.3,0.1C122,58.3,121.8,58.3,121.7,58.3z"/>
			<path fill="#273756" d="M118.6,50.9c-0.1,0-0.3-0.1-0.5-0.1c0,0.1-0.1,0.2-0.1,0.3c0-0.1,0-0.2,0.1-0.3
				C118.3,50.9,118.5,50.9,118.6,50.9z"/>
			<path fill="#273756" d="M118.1,51.3c0.2,0.3,0.9,0.1,1.3,0.2h0C119.1,51.4,118.3,51.6,118.1,51.3z"/>
		</g>
	</g>
</g>
</svg>
