<?xml version="1.0" encoding="utf-8"?>
<!-- Generator: Adobe Illustrator 22.0.0, SVG Export Plug-In . SVG Version: 6.00 Build 0)  -->
<svg version="1.1" id="Layer_1" xmlns="http://www.w3.org/2000/svg" xmlns:xlink="http://www.w3.org/1999/xlink" x="0px" y="0px"
	 viewBox="0 0 132.8 94" style="enable-background:new 0 0 132.8 94;" xml:space="preserve">
<style type="text/css">
	.st0{fill:#EE4636;}
</style>
<path class="st0" d="M129,68.6c0.1-0.1,0.1-0.3,0.1-0.5c0,0,0-0.1,0-0.1c0-0.1,0-0.2,0-0.4c0,0,0-0.1,0-0.1c0-0.1,0-0.3-0.1-0.4
	c0,0,0-0.1,0-0.1c-0.1-0.1-0.1-0.3-0.2-0.4c0,0,0,0,0,0l-10.7-14.9c-0.6-0.9-1.9-1.1-2.8-0.5c-0.9,0.6-1.1,1.9-0.5,2.8l8.6,12.1
	c-44.8,3.8-73.3-11.4-89.4-25C16.1,26.1,9.1,9.6,9.1,9.4c-0.4-1-1.6-1.5-2.6-1.1c-1,0.4-1.5,1.6-1.1,2.6c0.3,0.7,7.4,17.4,26,33.2
	c15,12.6,40.2,26.6,78.5,26.6c4.3,0,8.7-0.2,13.3-0.5l-8.3,12.1c-0.6,0.9-0.4,2.2,0.5,2.8c0.3,0.2,0.7,0.3,1.1,0.3
	c0.6,0,1.3-0.3,1.7-0.9l10.7-15.6C128.9,68.9,129,68.8,129,68.6C129,68.7,129,68.6,129,68.6C129,68.6,129,68.6,129,68.6z"/>
</svg>
