<svg xmlns="http://www.w3.org/2000/svg" width="258.219" height="117"><path d="M218.832 72.2l-.021.1c-1.895 2.2-3.975 3.8-7.006 3.8a6.108 6.108 0 0 1-6.406-5.9c0-3 1.245-4.7 4.941-7a.642.642 0 0 1 .728.1l7.708 8.1a.585.585 0 0 1 .207.4.464.464 0 0 1-.151.4zm-5.265-26a3.577 3.577 0 0 1 3.789 3.8c0 2.4-2.164 3.8-4.774 5.3l-.131.1a.554.554 0 0 1-.639-.2h-.06c-1.132-1.3-2.473-3.2-2.473-4.7a4.167 4.167 0 0 1 4.288-4.3zM234.362 79l-7.345-7.6a.6.6 0 0 1-.1-.8c.013-.1 5.6-9.6 5.6-9.6a.922.922 0 0 0 .138-.5 1.1 1.1 0 0 0-1.083-1.1h-4.1a1.05 1.05 0 0 0-.977.6l-3.552 6.2a.569.569 0 0 1-.771.1l-5.737-6a.446.446 0 0 1-.131-.3.454.454 0 0 1 .178-.4l.074-.1c3.241-1.9 6.935-4.7 6.935-9.6 0-5.6-4.027-9.4-10.017-9.4-5.874 0-10.327 3.9-10.327 9.8 0 2.6 1.077 5.2 3.3 7.9l.051.1a.579.579 0 0 1 .115.4.54.54 0 0 1-.211.4c-4.885 2.8-7.347 6.5-7.347 11 0 7.7 6.382 11.7 12.693 11.7 4.329 0 7.708-1.7 10.961-5.4a.368.368 0 0 0 .063-.1.577.577 0 0 1 .776 0l3.945 4.1.1.1a.894.894 0 0 0 .773.4h5.216a1.1 1.1 0 0 0 1.092-1.1 1.183 1.183 0 0 0-.307-.8zm-40.177-3h-.235c-5.895 0-8.883-3.1-8.883-9.4V48.4a.608.608 0 0 1 .579-.6h9.237a1.106 1.106 0 0 0 1.1-1.1v-4.1a1.106 1.106 0 0 0-1.1-1.1h-9.211a.563.563 0 0 1-.605-.6v-8.4a1.055 1.055 0 0 0-1.056-1.1h-.126l-4.726.4a1.043 1.043 0 0 0-1.078 1.1v8a.55.55 0 0 1-.579.6h-5.8a1.11 1.11 0 0 0-1.107 1.1l-.009 4.1a1.159 1.159 0 0 0 .347.8 1.138 1.138 0 0 0 .791.3h5.781a.612.612 0 0 1 .578.6v19.5c0 10.4 7.825 14.2 14.688 14.2a10.867 10.867 0 0 0 1.431-.1 1.085 1.085 0 0 0 1.088-1.1v-3.8a1.109 1.109 0 0 0-1.105-1.1zm-33.589-11.8c-.937 6.6-4.193 10.5-10.212 11.5-4.238.7-8.079-1.1-8.28-5.6-.229-5.1 5.558-9.3 16.252-8.8a8.776 8.776 0 0 1 1.311.1 1.007 1.007 0 0 1 .938.5c.173.2.203.8-.005 2.3zm7.131 15.1a10.617 10.617 0 0 1-.509-2.8c-.019-.3-.036-1.9-.036-1.9V55.3c0-10.2-7.166-13.8-13.872-13.8-5.309 0-10.15 1.4-13.269 3.5a1.116 1.116 0 0 0-.484.7 1 1 0 0 0 .157.8c.024 0 2.467 3.4 2.467 3.4a1.106 1.106 0 0 0 1.51.2c-.008 0 .334-.2.334-.2a15.846 15.846 0 0 1 8.24-2.4c8.274 0 8.033 6.5 8.033 7.4a.475.475 0 0 1-.572.5h-1.277c-6.419-.3-22.706 1.9-22.706 14.9 0 7.7 6.323 11.5 12.217 11.5 5.715 0 10.314-2.2 12.6-5l.028-.1h.117a.22.22 0 0 1 .146.1 17.9 17.9 0 0 0 .073 1.9 6.444 6.444 0 0 0 .242 1.4 1.229 1.229 0 0 0 .582.8.744.744 0 0 0 .462.1h4.59a1.08 1.08 0 0 0 1.083-1 3.848 3.848 0 0 0-.156-.7zm88.678-3.3h-.233c-5.9 0-8.888-3.1-8.888-9.4V48.4a.613.613 0 0 1 .577-.6h9.239a1.11 1.11 0 0 0 1.106-1.1v-4.1a1.11 1.11 0 0 0-1.106-1.1h-9.209a.564.564 0 0 1-.609-.6v-8.4a1.049 1.049 0 0 0-1.052-1.1h-.127l-4.728.4a1.043 1.043 0 0 0-1.079 1.1v8a.55.55 0 0 1-.576.6h-5.8a1.105 1.105 0 0 0-1.1 1.1l-.008 4.1a1.172 1.172 0 0 0 .342.8 1.137 1.137 0 0 0 .79.3h5.781a.61.61 0 0 1 .577.6v19.5c0 10.4 7.823 14.2 14.689 14.2a10.918 10.918 0 0 0 1.434-.1 1.082 1.082 0 0 0 1.081-1.1v-3.8a1.107 1.107 0 0 0-1.101-1.1zM23.674 14.2c.416 5.9 15.838 10.5 34.44 10s32.857-5.8 32.857-11.7c0-1.7-1.25-3.2-3.458-4.5a58.012 58.012 0 0 0-59.954.7c-2.632 1.7-4.022 3.6-3.885 5.5zm16.632 29c6.12.8 22.326 3 34.869 2 25.323-2.1 30.954-11 30.954-16.8a11.235 11.235 0 0 0-1.705-5.2 58.554 58.554 0 0 0-7.574-8.3 4.114 4.114 0 0 1 .993 2.4c.23 3.9-6.171 9.2-19.1 13.5a99.434 99.434 0 0 1-31.991 5.3c-22.324 0-30.032-8.5-30.032-13.8 0-.6-.112-5.2 5.067-9.5a58.475 58.475 0 0 0-12.2 13.5 4.012 4.012 0 0 0-.576 2.1c-.001 5.4 13.232 12.5 31.295 14.8zM21.324 82.4c12.563 5.2 32.51 9.1 43.837 8.7 40.879-1.5 49.933-22.3 50.879-28.3.1-1.4.158-2.9.158-4.3a59.313 59.313 0 0 0-1.646-13.9 22.885 22.885 0 0 1 .553 4.7c0 2.1.383 20-40.393 29.2-24.434 5.5-34.751 5.3-51.548 0C8.448 73.8.421 62.9.197 53.6c-.131 1.6-.2 3.3-.2 4.9q0 1.95.131 3.9c1.072 7.8 11.083 15.8 21.196 20zM55.612 111c-8.841 0-28.1-1.5-40.622-13.3a57.88 57.88 0 0 0 94.459-11.8c-3.023 5.3-16.394 25.1-53.837 25.1zm1.267-11.8C49.541 100 6.957 102 .753 67.9a58.962 58.962 0 0 0 4.741 15.5c2.67 4.8 9.32 11.5 18.935 15.5 49.947 20.7 80.682-4 86.607-16.3a58.629 58.629 0 0 0 4.727-17c-.703 4.6-5.315 27.6-58.884 33.6zM2.156 42.6A60.866 60.866 0 0 1 5.781 33a14.162 14.162 0 0 0-1.029 5.8c0 14.3 30.61 28.4 68.123 18 14.622-4 36.476-11.7 36.476-23.5 0-.6.244-2-1.693-5.4a58.182 58.182 0 0 1 5.824 12.9 13.759 13.759 0 0 1 .588 4.6c0 2.9-3.581 20.7-38.781 23.9-3.043.3-25.406.6-44.852-4.3-12.93-3.3-25.917-9.7-28.368-18.5a7.458 7.458 0 0 1 .087-3.9z" fill="#fff" fill-rule="evenodd"/></svg>