<svg xmlns="http://www.w3.org/2000/svg" width="49" height="49"><path fill-rule="evenodd" d="M24.5 0C10.966 0 0 10.966 0 24.5S10.966 49 24.5 49 49 38.034 49 24.5 38.034 0 24.5 0zm1.039 14.965a.708.708 0 0 1 .794-.608c1.225.157 3.567.715 5.546 2.764a9.298 9.298 0 0 1 2.509 5.292.699.699 0 0 1-.617.784h-.098a.7.7 0 0 1-.696-.618 7.864 7.864 0 0 0-2.127-4.478c-1.675-1.735-3.665-2.215-4.704-2.343a.707.707 0 0 1-.607-.793zm-.245 4.782a.714.714 0 0 1 .794-.608 4.146 4.146 0 0 1 2.41 1.206 4.07 4.07 0 0 1 1.098 2.313.705.705 0 0 1-.627.774c-.03 0-.049.01-.079.01a.719.719 0 0 1-.705-.637 2.641 2.641 0 0 0-.706-1.48 2.68 2.68 0 0 0-1.578-.784.713.713 0 0 1-.607-.794zm10.28 15.004l-3.42 3.42a3.501 3.501 0 0 1-3.959.706 36.402 36.402 0 0 1-11.123-7.968 36.696 36.696 0 0 1-6.674-9.819 3.513 3.513 0 0 1 .696-3.969l3.42-3.421a1.444 1.444 0 0 1 2.048 0l3.067 3.058c.579.578.579 1.49.01 2.058l-2.293 2.293a23.22 23.22 0 0 0 3.949 5.743 23.528 23.528 0 0 0 6.831 5.037l2.293-2.293a1.444 1.444 0 0 1 2.048 0l3.107 3.107a1.444 1.444 0 0 1 0 2.048zm2.734-12.113c-.019-.01-.049 0-.078 0a.7.7 0 0 1-.696-.617c-.196-1.539-.892-4.508-3.381-7.096-2.764-2.861-6.125-3.547-7.438-3.714a.705.705 0 1 1 .166-1.401c1.461.186 5.204.95 8.281 4.135 2.774 2.882 3.548 6.184 3.764 7.899a.714.714 0 0 1-.618.794z"/></svg>