<svg xmlns="http://www.w3.org/2000/svg" width="261.438" height="71.1"><path d="M62.558 57.8A35.075 35.075 0 0 1-.012 35.6 35.344 35.344 0 0 1 35.118 0a34.771 34.771 0 0 1 27.44 13.4l-1.14.7a30.61 30.61 0 0 0-22.367-9.8 31.253 31.253 0 0 0 0 62.5 30.543 30.543 0 0 0 22.376-9.7zm10.536-39.2c-11.03 0-17.369 7.5-17.369 17s6.286 17 17.369 17c10.539 0 17-7.5 17-17s-6.463-17-17-17m0 27.7c-6.263 0-10.412-4.9-10.412-10.7 0-5.9 4.19-10.8 10.412-10.8 5.4 0 10.051 4.5 10.051 10.8 0 6.1-4.536 10.7-10.051 10.7m96.335-4.3a10.083 10.083 0 0 1-8.684 4.3c-6.03 0-10.418-4.6-10.418-10.7 0-6.3 4.47-10.8 10.418-10.8a10.364 10.364 0 0 1 8.66 4.3l5.159-3.2c-.4-.7-4.046-7.3-13.819-7.3-10.562 0-17.361 7-17.361 17 0 9.9 6.762 17 17.361 17 9.649 0 13.29-6.4 13.869-7.4l-5.185-3.2zm-120.908.3a10.492 10.492 0 0 1-9.124 4.6c-6.318 0-10.938-4.9-10.938-11.3 0-6.6 4.692-11.4 10.938-11.4a10.673 10.673 0 0 1 9.088 4.6l5.426-3.4c-.433-.8-4.25-7.7-14.514-7.7-11.092 0-18.231 7.4-18.231 17.9 0 10.4 7.1 17.8 18.227 17.8 10.135 0 13.954-6.7 14.568-7.7l-5.44-3.4zm205.552-23.1l.214-9.2-6.952 3.6-.2 5.6h-5.177v5.4h5.177V43c0 6.6 3.689 9.6 8.585 9.6a15.591 15.591 0 0 0 4.864-.7l.842-5.6a10.293 10.293 0 0 1-3.138.5c-2.716 0-4.22-1-4.22-4.3V24.6h6.713v-5.4h-6.712zm-49.86 0s-.062 3.2-.07 3.7h-.091a13.6 13.6 0 0 0-10.344-4.3c-9.761 0-16.925 6.7-16.925 17 0 9.7 6.7 17 16.95 17a13.979 13.979 0 0 0 10.319-4.4h.091c.008 0 .07 3.8.07 3.8h7.036V19.2h-7.036zm-9.782 27.1c-6.742 0-10.7-4.9-10.7-10.7 0-6.4 4.428-10.8 10.722-10.8 6.7 0 10.706 4.9 10.706 10.8 0 5.8-4.027 10.7-10.723 10.7M132.217 52V31.4c0-4.3-2.26-6.8-6.006-6.8-3.833 0-5.949 2.6-5.949 6.8V52h-6.932V31.4c0-4.3-2.223-6.8-5.98-6.8-3.822 0-5.977 2.6-5.977 6.8V52H94.44V19.2h6.543l.061 3.1h.128a10.238 10.238 0 0 1 8.08-3.7 9.249 9.249 0 0 1 8.434 4.7 11.374 11.374 0 0 1 9.558-4.7c7.378 0 11.84 4.6 11.84 11.3V52h-6.867zm98.921-19.4c5.473 1.9 8.939 4.7 8.939 9.7 0 6.9-5.808 10.3-13.326 10.3-6.852 0-10.55-2.2-11.717-2.9l2.7-5.4a18.967 18.967 0 0 0 9.292 2.5c3.517 0 6.08-1.5 6.08-3.8 0-2-1.348-3.3-4.881-4.5l-3.7-1.3c-4.31-1.5-7.986-4.3-7.986-9.3 0-5.8 4.979-9.3 11.831-9.3a18.938 18.938 0 0 1 10.468 2.7l-2.655 5.1a16.77 16.77 0 0 0-7.985-2.1c-3.336 0-4.725 1.6-4.725 3.2s1.142 2.8 4.166 3.9z" fill="#fff" fill-rule="evenodd"/></svg>