<svg
 xmlns="http://www.w3.org/2000/svg"
 xmlns:xlink="http://www.w3.org/1999/xlink"
 width="26px" height="24px">
<path fill-rule="evenodd"  fill="rgb(246, 243, 254)"
 d="M24.681,22.486 C24.163,23.041 23.524,23.403 22.826,23.679 C22.329,23.876 21.769,23.955 21.236,23.958 C20.774,23.961 20.312,23.958 19.850,23.958 C18.763,23.958 17.680,23.958 16.593,23.958 C15.221,23.958 13.852,23.958 12.480,23.958 C11.150,23.958 9.819,23.958 8.488,23.958 C7.525,23.958 6.560,23.958 5.597,23.958 C4.793,23.958 3.969,23.991 3.203,23.694 C2.505,23.423 1.878,23.074 1.351,22.527 C0.827,21.980 0.459,21.345 0.218,20.631 C0.003,19.990 -0.000,19.314 -0.000,18.647 C-0.000,17.591 -0.000,16.539 -0.000,15.487 C-0.000,15.010 0.200,14.584 0.518,14.240 C0.836,13.893 1.310,13.743 1.766,13.723 C2.205,13.705 2.709,13.934 3.015,14.240 C3.336,14.561 3.533,15.034 3.533,15.487 C3.533,15.654 3.533,15.822 3.533,15.989 C3.533,16.698 3.533,17.409 3.533,18.117 C3.533,18.512 3.521,18.918 3.544,19.317 C3.569,19.440 3.605,19.560 3.645,19.679 C3.696,19.776 3.751,19.869 3.812,19.960 C3.875,20.028 3.940,20.093 4.008,20.156 C4.099,20.216 4.192,20.271 4.289,20.322 C4.414,20.363 4.541,20.402 4.671,20.428 C4.703,20.429 4.735,20.434 4.767,20.434 C5.403,20.437 6.038,20.434 6.674,20.434 C8.064,20.434 9.454,20.434 10.843,20.434 C12.469,20.434 14.094,20.434 15.719,20.434 C17.050,20.434 18.380,20.434 19.711,20.434 C20.100,20.434 20.491,20.434 20.880,20.434 C21.044,20.434 21.206,20.424 21.368,20.417 C21.484,20.393 21.598,20.359 21.711,20.322 C21.808,20.271 21.901,20.216 21.992,20.156 C22.060,20.093 22.126,20.028 22.188,19.960 C22.249,19.869 22.304,19.776 22.355,19.679 C22.393,19.565 22.426,19.451 22.451,19.333 C22.457,19.189 22.467,19.045 22.467,18.899 C22.467,17.762 22.467,16.624 22.467,15.487 C22.467,15.010 22.667,14.587 22.985,14.240 C23.303,13.893 23.777,13.743 24.233,13.723 C24.672,13.705 25.176,13.934 25.482,14.243 C25.803,14.564 26.000,15.037 26.000,15.490 C26.000,15.598 26.000,15.710 26.000,15.819 C26.000,16.936 26.000,18.053 26.000,19.170 C25.997,20.410 25.529,21.577 24.681,22.486 ZM18.669,13.067 C17.762,13.973 16.858,14.875 15.954,15.778 C15.388,16.343 14.825,16.906 14.258,17.471 C14.256,17.474 14.255,17.477 14.253,17.480 C13.935,17.827 13.461,17.976 13.004,17.997 C12.894,18.001 12.780,17.990 12.665,17.966 C12.570,17.947 12.479,17.914 12.390,17.878 C12.377,17.873 12.366,17.865 12.353,17.860 C12.330,17.851 12.311,17.838 12.289,17.828 C12.088,17.737 11.898,17.622 11.756,17.480 C11.754,17.477 11.752,17.474 11.750,17.471 C11.543,17.264 11.339,17.060 11.132,16.854 C10.225,15.948 9.321,15.046 8.417,14.143 C7.849,13.576 7.284,13.012 6.716,12.444 C6.377,12.106 6.218,11.665 6.197,11.198 C6.177,10.727 6.407,10.287 6.716,9.951 C7.013,9.625 7.531,9.434 7.964,9.434 C8.417,9.434 8.891,9.631 9.212,9.951 C9.421,10.160 9.627,10.366 9.836,10.575 C10.305,11.042 10.771,11.508 11.238,11.974 C11.238,11.598 11.238,11.221 11.238,10.845 C11.238,9.449 11.238,8.055 11.238,6.659 C11.238,5.507 11.238,4.357 11.238,3.208 C11.238,2.726 11.238,2.247 11.238,1.765 C11.238,1.286 11.438,0.862 11.756,0.518 C12.074,0.171 12.548,0.022 13.004,0.001 C13.443,-0.017 13.947,0.213 14.253,0.518 C14.574,0.839 14.771,1.312 14.771,1.765 C14.771,1.774 14.771,1.782 14.771,1.791 C14.777,2.376 14.771,2.961 14.771,3.546 C14.771,4.748 14.771,5.951 14.771,7.153 C14.771,8.549 14.771,9.943 14.771,11.339 C14.771,11.551 14.771,11.762 14.771,11.974 C14.879,11.866 14.987,11.758 15.095,11.651 C15.663,11.083 16.228,10.519 16.796,9.951 C17.135,9.613 17.577,9.455 18.045,9.434 C18.516,9.413 18.957,9.643 19.293,9.951 C19.620,10.248 19.811,10.766 19.811,11.198 C19.811,11.651 19.614,12.124 19.293,12.444 C19.084,12.653 18.878,12.859 18.669,13.067 Z"/>
</svg>
