<?xml version="1.0" encoding="UTF-8"?>
<svg width="554px" height="70px" viewBox="0 0 554 70" version="1.1" xmlns="http://www.w3.org/2000/svg" xmlns:xlink="http://www.w3.org/1999/xlink">
    <!-- Generator: Sketch 3.8.1 (29687) - http://www.bohemiancoding.com/sketch -->
    <title>Group</title>
    <desc>Created with Sketch.</desc>
    <defs>
        <polygon id="path-1" points="0.529246809 69.2134831 69.1769191 69.2134831 69.1769191 0.50494382 0.529246809 0.50494382"></polygon>
    </defs>
    <g id="Page-1" stroke="none" stroke-width="1" fill="none" fill-rule="evenodd">
        <g id="Group">
            <g id="Page-1">
                <polygon id="Fill-1" fill="#FFFFFF" points="0 6.96193258 0 64.1228315 8.97244255 64.1228315 8.97244255 40.5265393 20.5585078 40.5265393 20.5585078 32.3617079 8.97244255 32.3617079 8.97244255 15.1299101 23.7394894 15.1299101 23.7394894 6.96193258"></polygon>
                <polygon id="Fill-2" fill="#FFFFFF" points="28.0654043 64.1227528 37.0433475 64.1227528 37.0433475 6.96185393 28.0654043 6.96185393"></polygon>
                <g id="Group-38" transform="translate(41.648227, 0.281966)">
                    <path d="M14.2381929,31.993618 L26.8033844,31.993618 L26.8033844,50.1212584 C26.8033844,59.270809 22.2346525,64.4972135 13.4233021,64.4972135 C4.61195177,64.4972135 0.0440056738,59.270809 0.0440056738,50.1212584 L0.0440056738,20.399573 C0.0440056738,11.2547416 4.61195177,6.02833708 13.4233021,6.02833708 C22.2346525,6.02833708 26.8033844,11.2547416 26.8033844,20.399573 L26.8033844,25.9539551 L18.3197191,25.9539551 L18.3197191,19.8293483 C18.3197191,15.7465393 16.5233447,14.1939551 13.6676908,14.1939551 C10.8128227,14.1939551 9.01644823,15.7465393 9.01644823,19.8293483 L9.01644823,50.6969888 C9.01644823,54.7774382 10.8128227,56.2466517 13.6676908,56.2466517 C16.5233447,56.2466517 18.3197191,54.7774382 18.3197191,50.6969888 L18.3197191,40.1584494 L14.2381929,40.1584494 L14.2381929,31.993618 Z" id="Fill-3" fill="#FFFFFF"></path>
                    <polygon id="Fill-5" fill="#FFFFFF" points="40.5531929 63.8409438 31.5776071 63.8409438 31.5776071 6.68004494 40.5531929 6.68004494 40.5531929 31.1808315 50.7515078 31.1808315 50.7515078 6.68004494 59.8881858 6.68004494 59.8881858 63.8409438 50.7515078 63.8409438 50.7515078 39.3456629 40.5531929 39.3456629"></polygon>
                    <polygon id="Fill-7" fill="#FFFFFF" points="64.6634301 6.68004494 92.4035067 6.68004494 92.4035067 14.8480225 83.02244 14.8480225 83.02244 63.8409438 74.0468542 63.8409438 74.0468542 14.8480225 64.6634301 14.8480225"></polygon>
                    <polygon id="Fill-9" fill="#FFFFFF" points="250.835562 32.0186292 262.41927 32.0186292 262.41927 40.1787416 250.835562 40.1787416 250.835562 63.7805393 241.860762 63.7805393 241.860762 6.61964045 265.602609 6.61964045 265.602609 14.7868315 250.835562 14.7868315"></polygon>
                    <path d="M279.229123,6.61948315 L279.229123,50.7171236 C279.229123,54.797573 281.024712,56.2667865 283.880366,56.2667865 C286.73602,56.2667865 288.529251,54.797573 288.529251,50.7171236 L288.529251,6.61948315 L297.012916,6.61948315 L297.012916,50.1413933 C297.012916,59.2862247 292.447327,64.5173483 283.635977,64.5173483 C274.824627,64.5173483 270.254323,59.2862247 270.254323,50.1413933 L270.254323,6.61948315 L279.229123,6.61948315 Z" id="Fill-11" fill="#FFFFFF"></path>
                    <polygon id="Fill-13" fill="#FFFFFF" points="301.750048 6.61948315 329.490125 6.61948315 329.490125 14.7874607 320.106701 14.7874607 320.106701 63.780382 311.134258 63.780382 311.134258 14.7874607 301.750048 14.7874607"></polygon>
                    <path d="M343.197656,6.61948315 L343.197656,50.7171236 C343.197656,54.797573 344.991673,56.2667865 347.846542,56.2667865 C350.702195,56.2667865 352.49857,54.797573 352.49857,50.7171236 L352.49857,6.61948315 L360.983807,6.61948315 L360.983807,50.1413933 C360.983807,59.2862247 356.413503,64.5173483 347.60451,64.5173483 C338.790803,64.5173483 334.222856,59.2862247 334.222856,50.1413933 L334.222856,6.61948315 L343.197656,6.61948315 Z" id="Fill-15" fill="#FFFFFF"></path>
                    <path d="M374.605685,14.7871461 L374.605685,32.3422022 L378.116709,32.3422022 C381.461926,32.3422022 383.500331,30.8722022 383.500331,26.3025393 L383.500331,20.6671461 C383.500331,16.5819775 382.112581,14.7871461 378.929242,14.7871461 L374.605685,14.7871461 Z M384.397733,63.7800674 C383.908955,62.3108539 383.583628,61.4118652 383.583628,56.7564719 L383.583628,47.7728764 C383.583628,42.4662472 381.790397,40.5070337 377.708085,40.5070337 L374.605685,40.5070337 L374.605685,63.7800674 L365.635599,63.7800674 L365.635599,6.61916854 L379.176774,6.61916854 C388.476902,6.61916854 392.475131,10.9465843 392.475131,19.7681573 L392.475131,24.2575955 C392.475131,30.1375955 390.598604,33.9781573 386.602731,35.8508539 C391.088167,37.7298427 392.55607,42.0572584 392.55607,48.0206292 L392.55607,56.8374831 C392.55607,59.6146742 392.637009,61.659618 393.534411,63.7800674 L384.397733,63.7800674 Z" id="Fill-17" fill="#FFFFFF"></path>
                    <polygon id="Fill-19" fill="#FFFFFF" points="406.119562 30.7082921 418.441936 30.7082921 418.441936 38.8762697 406.119562 38.8762697 406.119562 55.6149213 421.620561 55.6149213 421.620561 63.7805393 397.147119 63.7805393 397.147119 6.61964045 421.620561 6.61964045 421.620561 14.7868315 406.119562 14.7868315"></polygon>
                    <polygon id="Fill-21" fill="#FFFFFF" points="104.827094 6.65479775 118.675523 6.65479775 118.675523 11.0931124 110.048839 11.0931124 110.048839 31.9224382 118.277114 31.9224382 118.277114 36.3560337 110.048839 36.3560337 110.048839 63.8408652 104.827094 63.8408652"></polygon>
                    <path d="M128.528707,54.4943708 C128.528707,57.6601011 129.162075,59.8772921 132.486075,59.8772921 C135.808503,59.8772921 136.44187,57.6601011 136.44187,54.4943708 L136.44187,16.0014494 C136.44187,12.8357191 135.808503,10.6161685 132.486075,10.6161685 C129.162075,10.6161685 128.528707,12.8357191 128.528707,16.0014494 L128.528707,54.4943708 Z M123.306963,15.8449326 C123.306963,10.219764 125.443595,6.18021348 132.486075,6.18021348 C139.52934,6.18021348 141.665972,10.219764 141.665972,15.8449326 L141.665972,54.6508876 C141.665972,60.2760562 139.52934,64.3156067 132.486075,64.3156067 C125.443595,64.3156067 123.306963,60.2760562 123.306963,54.6508876 L123.306963,15.8449326 Z" id="Fill-23" fill="#FFFFFF"></path>
                    <path d="M154.999849,31.9226742 C157.452379,31.9226742 158.874706,31.2108764 158.874706,27.8021124 L158.874706,14.9716629 C158.874706,11.6462697 157.134124,11.0933483 154.445063,11.0933483 L151.518686,11.0933483 L151.518686,31.9226742 L154.999849,31.9226742 Z M159.114379,39.8405393 C159.114379,37.0680674 157.452379,36.3562697 154.999849,36.3562697 L151.518686,36.3562697 L151.518686,63.8411011 L146.292226,63.8411011 L146.292226,6.65503371 L156.029267,6.65503371 C161.013696,6.65503371 164.095664,7.52806742 164.095664,13.2295281 L164.095664,27.7242472 C164.095664,32.1602022 162.436022,33.664809 158.400073,33.9023371 L158.400073,34.0588539 C162.118552,34.2987416 164.336124,35.4069438 164.336124,39.3654831 L164.336124,63.8411011 L159.114379,63.8411011 L159.114379,39.8405393 Z" id="Fill-25" fill="#FFFFFF"></path>
                    <polygon id="Fill-27" fill="#FFFFFF" points="176.734015 11.2196629 170.896977 11.2196629 170.896977 6.79629213 187.772367 6.79629213 187.772367 11.2196629 181.935329 11.2196629 181.935329 63.7904494 176.734015 63.7904494"></polygon>
                    <polygon id="Fill-29" fill="#FFFFFF" points="205.523549 6.79621348 210.728005 6.79621348 210.728005 63.7903708 205.523549 63.7903708 205.523549 36.3967753 197.716471 36.3967753 197.716471 63.7903708 192.509656 63.7903708 192.509656 6.79621348 197.716471 6.79621348 197.716471 31.9781236 205.523549 31.9781236"></polygon>
                    <polygon id="Fill-31" fill="#FFFFFF" points="215.37414 6.79621348 229.176991 6.79621348 229.176991 11.2195843 220.580169 11.2195843 220.580169 31.9781236 228.783298 31.9781236 228.783298 36.3967753 220.580169 36.3967753 220.580169 59.3717191 229.176991 59.3717191 229.176991 63.7903708 215.37414 63.7903708"></polygon>
                    <g id="Group-35" transform="translate(442.414184, 0.000000)">
                        <mask id="mask-2" fill="white">
                            <use xlink:href="#path-1"></use>
                        </mask>
                        <g id="Clip-34"></g>
                        <path d="M53.2951929,31.7383933 C52.8237035,37.7749101 48.2706879,45.2177191 34.9613291,54.5599663 C21.652756,45.2177191 17.1044553,37.7749101 16.632966,31.7383933 L16.632966,29.6407528 C17.1374596,23.3336742 21.2897092,20.0413146 24.8816723,19.6928876 C25.4741773,19.6323258 26.0266057,19.6071573 26.5413149,19.6071573 C30.6912071,19.6071573 32.6832496,21.3996292 34.9613291,24.1209775 C37.241766,21.3996292 39.2298794,19.6071573 43.3766284,19.6071573 C43.8991957,19.6071573 44.4516241,19.6323258 45.0417716,19.6928876 C48.6337348,20.0413146 52.7851986,23.3336742 53.2951929,29.6407528 L53.2951929,31.7383933 Z M34.855244,0.504235955 C15.8990142,0.504235955 0.529246809,15.8853596 0.529246809,34.8561461 C0.529246809,53.8324382 15.8990142,69.2135618 34.855244,69.2135618 C53.8099021,69.2135618 69.1773121,53.8324382 69.1773121,34.8561461 C69.1773121,15.8853596 53.8099021,0.504235955 34.855244,0.504235955 L34.855244,0.504235955 Z" id="Fill-33" fill="#EC3332" mask="url(#mask-2)"></path>
                    </g>
                    <path d="M487.455877,19.692573 C486.86573,19.6320112 486.313302,19.6068427 485.790734,19.6068427 C481.643985,19.6068427 479.656658,21.3993146 477.376221,24.1214494 C475.098141,21.3993146 473.105313,19.6068427 468.955421,19.6068427 C468.441497,19.6068427 467.889069,19.6320112 467.295778,19.692573 C463.703815,20.041 459.551565,23.3333596 459.047072,29.6404382 L459.047072,31.7380787 C459.519347,37.775382 464.066862,45.218191 477.376221,54.5596517 C490.684794,45.218191 495.237809,37.775382 495.709299,31.7380787 L495.709299,29.6404382 C495.20009,23.3333596 491.047841,20.041 487.455877,19.692573" id="Fill-36" fill="#FFFFFF"></path>
                </g>
            </g>
        </g>
    </g>
</svg>