<svg width="200" height="57" xmlns="http://www.w3.org/2000/svg"><g fill="none" fill-rule="evenodd"><path d="M72.191.048H45.546V56.28h21.987V41.972h4.658c11.577 0 20.962-9.385 20.962-20.962S83.768.048 72.191.048M21.097 22.341V19.68h20.828V.049H0v56.23h21.987V41.973h19.938v-19.63z" fill="#17DCFF"/><path d="M113.949 25.285c0 .788-.226 1.014-1.015 1.014h-4.095c-.79 0-1.014-.226-1.014-1.014V1.015c0-.79.225-1.015 1.014-1.015h17.323c.789 0 1.014.225 1.014 1.015V4.17c0 .79-.225 1.015-1.014 1.015h-12.213v5.297h11.837c.789 0 1.015.225 1.015 1.015v3.155c0 .79-.226 1.015-1.015 1.015H113.95v9.618zm21.903-7.965v7.965c0 .788-.226 1.014-1.015 1.014h-3.72c-.788 0-1.013-.226-1.013-1.014V8.19c0-.789.225-1.014 1.014-1.014h1.803c.601 0 .789.263 1.202 1.014l1.128 2.067c1.315-2.18 2.743-3.494 6.65-3.494.939 0 1.014.263.901.939l-.564 3.795c-.15.788-.337.939-1.09.939-3.756 0-5.296 2.216-5.296 4.884m21.111-2.405c-.376-1.578-1.202-3.494-3.645-3.494-2.554 0-3.418 1.916-3.756 3.494h7.401zm4.095 7.853c.451.563.602.864.188 1.277-1.728 1.728-4.847 2.667-7.627 2.667-5.672 0-10.144-4.47-10.144-9.956 0-5.485 4.472-9.993 9.957-9.993 6.424 0 9.392 5.11 9.392 10.707 0 .827-.15 1.09-.94 1.09h-12.472c.638 1.916 2.33 3.268 4.32 3.268.864 0 2.292-.037 4.396-.976.751-.338.94-.564 1.465.074l1.465 1.842zm17.132-7.853c-.376-1.578-1.202-3.494-3.644-3.494-2.555 0-3.42 1.916-3.757 3.494h7.401zm4.095 7.853c.451.563.602.864.188 1.277-1.728 1.728-4.846 2.667-7.627 2.667-5.672 0-10.144-4.47-10.144-9.956 0-5.485 4.472-9.993 9.957-9.993 6.424 0 9.392 5.11 9.392 10.707 0 .827-.15 1.09-.94 1.09h-12.473c.64 1.916 2.33 3.268 4.321 3.268.864 0 2.292-.037 4.396-.976.751-.338.94-.564 1.465.074l1.465 1.842zm-64.279 17.878c2.63 0 3.832-.864 3.832-2.817 0-1.954-1.202-2.818-3.832-2.818h-4.057v5.635h4.057zm-4.057 5.072v9.505c0 .789-.226 1.015-1.015 1.015h-4.095c-.79 0-1.014-.226-1.014-1.015v-24.27c0-.79.225-1.015 1.014-1.015h9.355c4.283 0 9.58 1.804 9.58 7.89 0 6.087-5.297 7.89-9.58 7.89h-4.245zm21.901 1.54v7.965c0 .789-.225 1.015-1.014 1.015h-3.719c-.789 0-1.015-.226-1.015-1.015V38.13c0-.789.226-1.015 1.015-1.015h1.803c.601 0 .79.263 1.202 1.015l1.127 2.066c1.316-2.179 2.743-3.494 6.65-3.494.94 0 1.015.263.902.94l-.563 3.794c-.15.79-.338.94-1.09.94-3.757 0-5.297 2.216-5.297 4.883m21.073-2.405c-.376-1.578-1.202-3.494-3.644-3.494-2.555 0-3.419 1.916-3.757 3.494h7.401zm4.096 7.852c.45.563.6.864.188 1.277-1.73 1.729-4.847 2.668-7.628 2.668-5.672 0-10.143-4.47-10.143-9.956 0-5.485 4.47-9.994 9.956-9.994 6.424 0 9.392 5.11 9.392 10.708 0 .826-.15 1.09-.939 1.09h-12.473c.638 1.915 2.33 3.268 4.32 3.268.864 0 2.292-.038 4.396-.977.751-.338.94-.564 1.465.075l1.466 1.841zm14.764-2.066c0-.865-1.39-1.165-3.72-1.466-4.094-.525-7.363-2.028-7.363-6.123 0-3.87 3.269-6.35 7.928-6.35 1.99 0 4.47.489 7.363 2.142.714.413.564.751.226 1.427l-1.09 1.88c-.375.675-.639.976-1.352.487-1.165-.789-2.555-1.54-4.772-1.54-2.179 0-2.893.564-2.893 1.615 0 .865 1.39 1.24 3.72 1.54 4.095.527 7.363 1.767 7.363 6.05 0 3.87-3.343 6.349-8.19 6.349-1.99 0-5.034-.563-7.814-2.442-.677-.451-.564-.751-.226-1.428l1.09-1.878c.375-.676.601-1.052 1.353-.489 1.126.827 3.005 1.842 5.222 1.842 1.99 0 3.155-.565 3.155-1.616m18.521 0c0-.865-1.39-1.165-3.719-1.466-4.095-.525-7.363-2.028-7.363-6.123 0-3.87 3.268-6.35 7.927-6.35 1.991 0 4.47.489 7.363 2.142.714.413.564.751.226 1.427l-1.09 1.88c-.375.675-.638.976-1.352.487-1.165-.789-2.555-1.54-4.771-1.54-2.18 0-2.894.564-2.894 1.615 0 .865 1.39 1.24 3.72 1.54 4.095.527 7.364 1.767 7.364 6.05 0 3.87-3.344 6.349-8.19 6.349-1.991 0-5.035-.563-7.815-2.442-.676-.451-.564-.751-.226-1.428l1.09-1.878c.376-.676.601-1.052 1.353-.489 1.127.827 3.005 1.842 5.222 1.842 1.991 0 3.155-.565 3.155-1.616" fill="#150e33"/></g></svg>
