<svg xmlns="http://www.w3.org/2000/svg" xmlns:xlink="http://www.w3.org/1999/xlink" width="17" height="23" viewBox="0 0 17 23"><defs><style>.a{fill:#fff;}.b{mask:url(#a);}</style><mask id="a" x="0" y="0" width="17" height="23" maskUnits="userSpaceOnUse"><polygon class="a" points="0 0 17 0 17 23 0 23 0 0"/></mask></defs><title>Artboard 1</title><g class="b"><path class="a" d="M10.734,8.864h-1.4v.112q0,2.5,0,4.994c0,.031,0,.061,0,.091H7.416c0-.155,0-.309,0-.464V8.866H6.142c0-.036-.005-.063-.005-.09,0-.536,0-1.073,0-1.61,0-.074.022-.093.093-.092.365,0,.731,0,1.1,0,.078,0,.095-.025.095-.1,0-.481,0-.962.017-1.443A2.385,2.385,0,0,1,7.68,4.527a1.348,1.348,0,0,1,.812-.7,6.127,6.127,0,0,1,.621-.137L9.2,3.67h1.718c0,.033,0,.066,0,.1,0,.534,0,1.067,0,1.6,0,.075-.021.093-.092.092q-.43,0-.859,0a1.678,1.678,0,0,0-.291.036.393.393,0,0,0-.32.389c-.014.375-.012.752-.019,1.128,0,.068.044.057.083.057h1.5c-.062.6-.124,1.193-.186,1.789M8.5,0A8.562,8.562,0,0,0,0,8.622C0,15.5,8.528,23,8.528,23S17.055,15.5,17,8.622A8.588,8.588,0,0,0,8.5,0"/></g></svg>