<svg xmlns="http://www.w3.org/2000/svg" width="39.94" height="32.5" viewBox="0 0 39.94 32.5">
  <metadata><?xpacket begin="﻿" id="W5M0MpCehiHzreSzNTczkc9d"?>
<x:xmpmeta xmlns:x="adobe:ns:meta/" x:xmptk="Adobe XMP Core 5.6-c140 79.160451, 2017/05/06-01:08:21        ">
   <rdf:RDF xmlns:rdf="http://www.w3.org/1999/02/22-rdf-syntax-ns#">
      <rdf:Description rdf:about=""/>
   </rdf:RDF>
</x:xmpmeta>
                                                                                                    
                                                                                                    
                                                                                                    
                                                                                                    
                                                                                                    
                                                                                                    
                                                                                                    
                                                                                                    
                                                                                                    
                                                                                                    
                                                                                                    
                                                                                                    
                                                                                                    
                                                                                                    
                                                                                                    
                                                                                                    
                                                                                                    
                                                                                                    
                                                                                                    
                                                                                                    
                           
<?xpacket end="w"?></metadata>
<defs>
    <style>
      .cls-1 {
        fill: #1296b7;
        fill-rule: evenodd;
      }
    </style>
  </defs>
  <path class="cls-1" d="M1223.76,642.667a16.38,16.38,0,0,1-4.71,1.292,8.2,8.2,0,0,0,3.61-4.539,16.491,16.491,0,0,1-5.21,1.991,8.207,8.207,0,0,0-13.96,7.483,23.259,23.259,0,0,1-16.89-8.573,8.128,8.128,0,0,0-1.11,4.125,8.223,8.223,0,0,0,3.64,6.829,8.188,8.188,0,0,1-3.71-1.026v0.1A8.213,8.213,0,0,0,1192,658.4a8.281,8.281,0,0,1-2.16.288,8.123,8.123,0,0,1-1.54-.148,8.19,8.19,0,0,0,7.65,5.7,16.522,16.522,0,0,1-12.13,3.4,23.145,23.145,0,0,0,12.56,3.686c15.07,0,23.32-12.5,23.32-23.343,0-.354-0.01-0.709-0.03-1.06a16.734,16.734,0,0,0,4.09-4.247h0Zm0,0" transform="translate(-1183.81 -638.812)"/>
</svg>
