<svg xmlns="http://www.w3.org/2000/svg" width="44.38" height="29.532" viewBox="0 0 44.38 29.532">
  <metadata><?xpacket begin="﻿" id="W5M0MpCehiHzreSzNTczkc9d"?>
<x:xmpmeta xmlns:x="adobe:ns:meta/" x:xmptk="Adobe XMP Core 5.6-c140 79.160451, 2017/05/06-01:08:21        ">
   <rdf:RDF xmlns:rdf="http://www.w3.org/1999/02/22-rdf-syntax-ns#">
      <rdf:Description rdf:about=""/>
   </rdf:RDF>
</x:xmpmeta>
                                                                                                    
                                                                                                    
                                                                                                    
                                                                                                    
                                                                                                    
                                                                                                    
                                                                                                    
                                                                                                    
                                                                                                    
                                                                                                    
                                                                                                    
                                                                                                    
                                                                                                    
                                                                                                    
                                                                                                    
                                                                                                    
                                                                                                    
                                                                                                    
                                                                                                    
                                                                                                    
                           
<?xpacket end="w"?></metadata>
<defs>
    <style>
      .cls-1 {
        fill: #6324b3;
        fill-rule: evenodd;
      }
    </style>
  </defs>
  <path class="cls-1" d="M1206.83,513.563a1.649,1.649,0,0,1-1.65,0l-20.66-11.977a0.467,0.467,0,0,0-.63.161,0.384,0.384,0,0,0-.07.229v18.189a3.456,3.456,0,0,0,3.49,3.423h37.39a3.456,3.456,0,0,0,3.49-3.423V501.976a0.452,0.452,0,0,0-.46-0.451,0.466,0.466,0,0,0-.23.061Zm0.09-3.754,21.03-12.187a0.437,0.437,0,0,0,.23-0.419,3.469,3.469,0,0,0-3.48-3.134h-37.39a3.476,3.476,0,0,0-3.48,3.134,0.454,0.454,0,0,0,.23.419l21.03,12.187A1.825,1.825,0,0,0,1206.92,509.809Z" transform="translate(-1183.81 -494.062)"/>
</svg>
