<svg xmlns="http://www.w3.org/2000/svg" width="39.94" height="32.5"><path d="M39.95 3.855a16.38 16.38 0 0 1-4.71 1.292A8.2 8.2 0 0 0 38.85.608a16.491 16.491 0 0 1-5.21 1.991 8.207 8.207 0 0 0-13.96 7.483A23.259 23.259 0 0 1 2.79 1.509a8.128 8.128 0 0 0-1.11 4.125 8.223 8.223 0 0 0 3.64 6.829 8.188 8.188 0 0 1-3.71-1.026v.1a8.213 8.213 0 0 0 6.58 8.051 8.281 8.281 0 0 1-2.16.288 8.123 8.123 0 0 1-1.54-.148 8.19 8.19 0 0 0 7.65 5.7 16.522 16.522 0 0 1-12.13 3.4 23.145 23.145 0 0 0 12.56 3.686c15.07 0 23.32-12.5 23.32-23.343 0-.354-.01-.709-.03-1.06a16.734 16.734 0 0 0 4.09-4.247zm0 0" fill="#1296b7" fill-rule="evenodd"/></svg>