<svg xmlns="http://www.w3.org/2000/svg" width="44.38" height="29.532"><path d="M23.02 19.501a1.649 1.649 0 0 1-1.65 0L.71 7.524a.467.467 0 0 0-.63.161.384.384 0 0 0-.07.229v18.189a3.456 3.456 0 0 0 3.49 3.423h37.39a3.456 3.456 0 0 0 3.49-3.423V7.914a.452.452 0 0 0-.46-.451.466.466 0 0 0-.23.061zm.09-3.754L44.14 3.56a.437.437 0 0 0 .23-.419A3.469 3.469 0 0 0 40.89.007H3.5A3.476 3.476 0 0 0 .02 3.141a.454.454 0 0 0 .23.419l21.03 12.187a1.825 1.825 0 0 0 1.83 0z" fill="#6324b3" fill-rule="evenodd"/></svg>