<svg xmlns="http://www.w3.org/2000/svg" width="44.41" height="44.313" viewBox="0 0 44.41 44.313">
  <metadata><?xpacket begin="﻿" id="W5M0MpCehiHzreSzNTczkc9d"?>
<x:xmpmeta xmlns:x="adobe:ns:meta/" x:xmptk="Adobe XMP Core 5.6-c140 79.160451, 2017/05/06-01:08:21        ">
   <rdf:RDF xmlns:rdf="http://www.w3.org/1999/02/22-rdf-syntax-ns#">
      <rdf:Description rdf:about=""/>
   </rdf:RDF>
</x:xmpmeta>
                                                                                                    
                                                                                                    
                                                                                                    
                                                                                                    
                                                                                                    
                                                                                                    
                                                                                                    
                                                                                                    
                                                                                                    
                                                                                                    
                                                                                                    
                                                                                                    
                                                                                                    
                                                                                                    
                                                                                                    
                                                                                                    
                                                                                                    
                                                                                                    
                                                                                                    
                                                                                                    
                           
<?xpacket end="w"?></metadata>
<defs>
    <style>
      .cls-1 {
        fill: #188d49;
        fill-rule: evenodd;
      }
    </style>
  </defs>
  <path class="cls-1" d="M1223.03,357.367a6.894,6.894,0,0,1-3.63-2.14,2.311,2.311,0,0,1-.66-0.493,36,36,0,0,0,4.95-12.675,7.522,7.522,0,0,1,6.76,2.14c11.87,12.017-27.86,51.687-39.9,39.835a7.526,7.526,0,0,1-2.14-6.749,36.053,36.053,0,0,0,12.69-4.938,2.274,2.274,0,0,1,.5.659,6.9,6.9,0,0,1,2.14,3.621A47.24,47.24,0,0,0,1223.03,357.367Z" transform="translate(-1188.25 -341.906)"/>
</svg>
