<svg xmlns="http://www.w3.org/2000/svg" width="309.88" height="64.6"><path d="M28.18 15.4h9.46C37.33 5.6 30.97.1 19.53 0 8.88.1 2.37 3.6.85 12.9c-.76 8.5 3.38 13.4 11.78 15.4 4.3 1.1 8.29 2 11.5 3 7.72 1.7 7.98 11.4-2.2 11.8-8.53 0-11.01-2.7-12.2-8H.02c.91 9.6 5.95 16 18.81 16.3 11.31 0 19.11-3.4 20.21-13.1.93-8.6-2.07-13.8-11.84-16-8.03-2-15.85-3.5-16.63-7.3-.78-3.9 1.65-6.8 8.96-6.8 3.8 0 8.19 1.7 8.65 7.2zM59.55 12c-17.46.2-17.45 13.8-17.45 19.8v32.8h4.92a4.69 4.69 0 0 0 4.68-4.7V48.2a19.316 19.316 0 0 0 9.25 3.2c8.33 0 15.93-5 16.12-19.1.26-18.9-12.72-20.4-17.52-20.3zm8.38 19.8c-.26 7.2-2.95 11.1-8.38 11.1-5.16 0-7.85-5-7.85-11.1 0-6.2 2.17-11.6 7.85-11.6 5.9 0 8.6 5.4 8.38 11.6zm21.91 2.4h24.33c.02-.6.02-1.2.01-1.8-.38-14.2-6.97-20.2-16.9-20.3-11.01-.1-17.49 6.5-17.49 19.8 0 11 5.76 19.6 17.49 19.6 8.48 0 14.36-4.6 16.25-12.5h-8.34c-2.54 7-16.39 5.5-15.35-4.8zM104 27.9H89.78c.29-10.7 14.58-9.9 14.22 0zm64.42-15.3h-5.64V6.5a4.866 4.866 0 0 0-4.82-4.9h-4.93v43.8a4.866 4.866 0 0 0 4.82 4.9h4.93V22.7h5.64V12.6zm-33.76 30.5c-9.71.5-9.57-13.5-7.17-18.8 2.59-5.6 11.1-5.2 13.02 0h9.88c-2.17-7.1-7.59-12.2-16.21-12.2-12.55 0-17.28 7.8-17.28 20 0 10.8 4.78 19.2 17.75 19.2 8.19 0 13.7-5.1 15.85-12.2h-9.2c-1.31 3.2-3.51 3.9-6.64 4zm52.76-20.4h4.12v-10h-2.8c-11 0-18.17 7.8-18.17 17.4v20.2h9.62V30a7.224 7.224 0 0 1 7.23-7.3zm30.03-5.2v20c0 3.5-2.81 6.1-6.53 6.1-4.03 0-6.53-2.6-6.53-6.1V12.7h-9.96V35c0 9.1 4.63 16.5 16.32 16.5 12.56 0 16.31-7.4 16.31-16.5V12.7h-4.84a4.757 4.757 0 0 0-4.77 4.8zm51.92-5.5c-4.97 0-8.67 1.4-11.27 3.7-2.78-2.5-6.4-3.6-11.85-3.6-10.56 0-16.16 5.6-16.16 16.3v21.9h9.7V26.8c0-4.1 2.57-6.8 6.61-6.8 4.82 0 6.65 2.9 6.65 8.4v21.9h9.66V25.8c0-7.6 13.22-7.9 13.22 0v20c0 2.7 2.44 4.5 5.07 4.5h5.32V19.4c0-1.9-6.5-7.4-16.95-7.4zm20.58 7.6v30.7l19.93-15.4z" fill="#fff" fill-rule="evenodd"/></svg>