<svg xmlns="http://www.w3.org/2000/svg" width="293.72" height="64.5"><path d="M286.95.1c2.25-.2 4.5-.1 6.76-.1-6.76 14-13.27 28.1-19.9 42.2h-5.49c-3.05-7.1-6.56-14-9.74-21 2.2-.1 4.39-.1 6.59 0 1.9 4.3 4.14 8.5 5.89 12.9 5.31-11.3 10.77-22.6 15.89-34zm-169.81 6h13.06c-.07 3.9-.04 7.7-.03 11.6-4.36-.1-8.72-.1-13.08-.1.06-3.8-.01-7.7.05-11.5zm-65.7 16.5c8.9-5 21.81-3.3 27.82 5.4 3.69 5.1 4.73 11.6 4.69 17.7-10.2.1-20.41 0-30.62.1.47 3.1 1.83 6.4 4.74 8 4.13 2.4 10.66 1.7 12.75-3 4.19-.2 8.38-.1 12.57 0a18.176 18.176 0 0 1-9.22 11.1 25.791 25.791 0 0 1-15.73 2.2 21.13 21.13 0 0 1-13.9-8.7c-3.42-5-4.36-11.3-3.55-17.1a21.071 21.071 0 0 1 10.45-15.7zm6.95 7.3c-2.91 1.4-4.35 4.5-4.98 7.5h17.41a10.444 10.444 0 0 0-2.96-6.3c-2.48-2.4-6.45-2.5-9.47-1.2zm129.83-9.5c7.01-1.3 14.78.2 20.16 5 9.2 8.1 9.59 23.9 1.06 32.6-6.74 7-18.07 8.3-26.74 4.3a21.29 21.29 0 0 1-12.04-17c-.33-4.1-.15-8.4 1.61-12.3a20.89 20.89 0 0 1 15.95-12.6zm1.49 9.6c-3.69 1.3-5.38 5.2-5.91 8.8-.43 4.5-.37 9.5 2.57 13.3 3.14 4 10.07 3.9 13.22-.1 2.64-3.2 3-7.7 2.75-11.7-.2-3.5-1.41-7.3-4.4-9.4a9.22 9.22 0 0 0-8.23-.9zm45.13-7.2c4.31-3.4 10.49-3.7 15.47-1.7a13.618 13.618 0 0 1 7.46 8.2c1.39 3.8.98 7.8 1.03 11.6.03 7.4-.05 14.9.05 22.3-4.35.1-8.69 0-13.03 0-.02-8.5 0-17-.01-25.4a7.212 7.212 0 0 0-2.67-5.9 7.423 7.423 0 0 0-9.22.8 10.044 10.044 0 0 0-2.67 7.2c-.01 7.8.02 15.6-.01 23.3-4.29-.1-8.59 0-12.88 0 0-14 .04-28-.01-42.1 4.19.1 8.39 0 12.58.1-.05 1.9-.06 3.9-.1 5.8 1.3-1.4 2.41-3.1 4.01-4.2zM-.007 21.2q6.758-.15 13.507 0c2.7 9 5.625 18 8.2 27.1 3.125-9 5.538-18.1 8.458-27.1 4.36-.1 8.72 0 13.08 0-4.98 13.9-9.87 28-14.76 42-4.517 0-9.034-.1-13.546.1C9.8 49.3 5.216 35.1-.007 21.2zm86.927 0c4.15-.1 8.32 0 12.48-.1-.04 2.4-.01 4.8-.13 7.1 1.09-1.2 1.85-2.6 2.97-3.8a11.712 11.712 0 0 1 11.38-3.2q-.045 5.55 0 11.1c-3.21-.4-6.74-.3-9.46 1.7-2.91 2-4.21 5.7-4.17 9.1-.04 6.7-.01 13.4-.01 20.1H86.92q.06-21 0-42zm30.17 0c4.37-.1 8.74 0 13.11-.1-.08 14.1-.03 28.1-.03 42.1h-13.08q.06-21 0-42zm16.64-.1c11.8.1 23.59 0 35.38.1-.12 3.2.01 6.4-.05 9.6a12.448 12.448 0 0 1-1.69 2.1c-6.08 6.7-12.01 13.5-18.13 20.1 6.94.2 13.88 0 20.83.1-.02 3.4 0 6.7-.02 10.1h-36.31c-.02-3.2.01-6.5-.02-9.7 6.32-7.1 12.66-14.1 19.07-21.1.19-.4.96-.7.56-1.2-6.52.2-13.05 0-19.58.1-.07-3.4-.02-6.8-.04-10.2z" fill="#fff" fill-rule="evenodd"/></svg>