<?xml version="1.0" encoding="UTF-8"?>
<svg width="553px" height="70px" viewBox="0 0 553 70" version="1.1" xmlns="http://www.w3.org/2000/svg" xmlns:xlink="http://www.w3.org/1999/xlink">
    <!-- Generator: Sketch 3.8.1 (29687) - http://www.bohemiancoding.com/sketch -->
    <title>Group</title>
    <desc>Created with Sketch.</desc>
    <defs>
        <polygon id="path-1" points="0.528263078 69.1848233 69.0483375 69.1848233 69.0483375 0.504734734 0.528263078 0.504734734"></polygon>
    </defs>
    <g id="Page-1" stroke="none" stroke-width="1" fill="none" fill-rule="evenodd">
        <g id="Group" transform="translate(-1.000000, 0.000000)">
            <g id="Page-1" transform="translate(1.000000, 0.000000)">
                <polygon id="Fill-1" fill="#11354E" points="0 6.9590498 0 64.0962796 8.95576515 64.0962796 8.95576515 40.5097582 20.520295 40.5097582 20.520295 32.3483076 8.95576515 32.3483076 8.95576515 15.1236451 23.6953639 15.1236451 23.6953639 6.9590498"></polygon>
                <polygon id="Fill-2" fill="#11354E" points="28.0132381 64.0962009 36.9744937 64.0962009 36.9744937 6.95897118 28.0132381 6.95897118"></polygon>
                <g id="Group-38" transform="translate(41.570814, 0.281850)">
                    <path d="M14.2117279,31.9803701 L26.753564,31.9803701 L26.753564,50.1005043 C26.753564,59.2462662 22.1933241,64.4705066 13.3983518,64.4705066 C4.60337937,64.4705066 0.0439238788,59.2462662 0.0439238788,50.1005043 L0.0439238788,20.391126 C0.0439238788,11.2500812 4.60337937,6.02584087 13.3983518,6.02584087 C22.1933241,6.02584087 26.753564,11.2500812 26.753564,20.391126 L26.753564,25.9432081 L18.2856676,25.9432081 L18.2856676,19.8211374 C18.2856676,15.740019 16.4926321,14.1880776 13.6422862,14.1880776 C10.7927245,14.1880776 8.99968903,15.740019 8.99968903,19.8211374 L8.99968903,50.6759962 C8.99968903,54.754756 10.7927245,56.2233611 13.6422862,56.2233611 C16.4926321,56.2233611 18.2856676,54.754756 18.2856676,50.6759962 L18.2856676,40.1418207 L14.2117279,40.1418207 L14.2117279,31.9803701 Z" id="Fill-3" fill="#11354E"></path>
                    <polygon id="Fill-5" fill="#11354E" points="40.4778152 63.8145086 31.5189127 63.8145086 31.5189127 6.67727888 40.4778152 6.67727888 40.4778152 31.1679201 50.6571741 31.1679201 50.6571741 6.67727888 59.7768695 6.67727888 59.7768695 63.8145086 50.6571741 63.8145086 50.6571741 39.3293707 40.4778152 39.3293707"></polygon>
                    <polygon id="Fill-7" fill="#11354E" points="64.5432378 6.67727888 92.2317529 6.67727888 92.2317529 14.8418742 82.8681232 14.8418742 82.8681232 63.8145086 73.9092206 63.8145086 73.9092206 14.8418742 64.5432378 14.8418742"></polygon>
                    <polygon id="Fill-9" fill="#11354E" points="250.369325 32.005371 261.931502 32.005371 261.931502 40.1621044 250.369325 40.1621044 250.369325 63.7541292 241.411207 63.7541292 241.411207 6.6168994 265.108924 6.6168994 265.108924 14.7807085 250.369325 14.7807085"></polygon>
                    <path d="M278.71011,6.61674216 L278.71011,50.6961227 C278.71011,54.7748825 280.502361,56.2434876 283.352707,56.2434876 C286.203053,56.2434876 287.992951,54.7748825 287.992951,50.6961227 L287.992951,6.61674216 L296.460847,6.61674216 L296.460847,50.1206308 C296.460847,59.2616756 291.903745,64.4906331 283.108773,64.4906331 C274.3138,64.4906331 269.751992,59.2616756 269.751992,50.1206308 L269.751992,6.61674216 L278.71011,6.61674216 Z" id="Fill-11" fill="#11354E"></path>
                    <polygon id="Fill-13" fill="#11354E" points="301.189175 6.61674216 328.87769 6.61674216 328.87769 14.7813375 319.511707 14.7813375 319.511707 63.7539719 310.555942 63.7539719 310.555942 14.7813375 301.189175 14.7813375"></polygon>
                    <path d="M342.559743,6.61674216 L342.559743,50.6961227 C342.559743,54.7748825 344.350425,56.2434876 347.199987,56.2434876 C350.050333,56.2434876 351.843368,54.7748825 351.843368,50.6961227 L351.843368,6.61674216 L360.312833,6.61674216 L360.312833,50.1206308 C360.312833,59.2616756 355.751025,64.4906331 346.958405,64.4906331 C338.16108,64.4906331 333.601624,59.2616756 333.601624,50.1206308 L333.601624,6.61674216 L342.559743,6.61674216 Z" id="Fill-15" fill="#11354E"></path>
                    <path d="M373.909391,14.781023 L373.909391,32.32881 L377.413889,32.32881 C380.752889,32.32881 382.787505,30.8594187 382.787505,26.291648 L382.787505,20.6585882 C382.787505,16.5751113 381.402335,14.781023 378.224913,14.781023 L373.909391,14.781023 Z M383.683239,63.7536574 C383.19537,62.2850523 382.870647,61.3864358 382.870647,56.7329703 L382.870647,47.7530947 C382.870647,42.4486628 381.080749,40.4902606 377.006025,40.4902606 L373.909391,40.4902606 L373.909391,63.7536574 L364.955979,63.7536574 L364.955979,6.61642768 L378.471984,6.61642768 C387.754826,6.61642768 391.745624,10.9420515 391.745624,19.7599717 L391.745624,24.247551 C391.745624,30.1251162 389.872584,33.9640877 385.884139,35.8360089 C390.361237,37.7142196 391.826412,42.0398434 391.826412,48.0007449 L391.826412,56.813948 C391.826412,59.589989 391.907201,61.634086 392.802934,63.7536574 L383.683239,63.7536574 Z" id="Fill-17" fill="#11354E"></path>
                    <polygon id="Fill-19" fill="#11354E" points="405.364693 30.6955765 417.664163 30.6955765 417.664163 38.8601718 405.364693 38.8601718 405.364693 55.5918924 420.836879 55.5918924 420.836879 63.7541292 396.408928 63.7541292 396.408928 6.6168994 420.836879 6.6168994 420.836879 14.7807085 405.364693 14.7807085"></polygon>
                    <polygon id="Fill-21" fill="#11354E" points="104.632248 6.65204214 118.454936 6.65204214 118.454936 11.0885189 109.844287 11.0885189 109.844287 31.9092198 118.057268 31.9092198 118.057268 36.3409794 109.844287 36.3409794 109.844287 63.81443 104.632248 63.81443"></polygon>
                    <path d="M128.289806,54.4718058 C128.289806,57.6362253 128.921996,59.8524982 132.239818,59.8524982 C135.556071,59.8524982 136.188261,57.6362253 136.188261,54.4718058 L136.188261,15.9948236 C136.188261,12.8304041 135.556071,10.6117726 132.239818,10.6117726 C128.921996,10.6117726 128.289806,12.8304041 128.289806,15.9948236 L128.289806,54.4718058 Z M123.077767,15.8383715 C123.077767,10.2155323 125.210429,6.17765439 132.239818,6.17765439 C139.269992,6.17765439 141.402653,10.2155323 141.402653,15.8383715 L141.402653,54.6282579 C141.402653,60.2510972 139.269992,64.288975 132.239818,64.288975 C125.210429,64.288975 123.077767,60.2510972 123.077767,54.6282579 L123.077767,15.8383715 Z" id="Fill-23" fill="#11354E"></path>
                    <path d="M154.711745,31.9094557 C157.159717,31.9094557 158.579399,31.1979526 158.579399,27.7906001 L158.579399,14.9654635 C158.579399,11.6414472 156.842053,11.0887548 154.15799,11.0887548 L151.237052,11.0887548 L151.237052,31.9094557 L154.711745,31.9094557 Z M158.818628,39.8240422 C158.818628,37.0527183 157.159717,36.3412153 154.711745,36.3412153 L151.237052,36.3412153 L151.237052,63.8146659 L146.020307,63.8146659 L146.020307,6.652278 L155.73925,6.652278 C160.714414,6.652278 163.790654,7.5249502 163.790654,13.22405 L163.790654,27.7127672 C163.790654,32.1468854 162.134096,33.6508691 158.105649,33.8882988 L158.105649,34.0447509 C161.817217,34.2845392 164.030666,35.3922826 164.030666,39.3491827 L164.030666,63.8146659 L158.818628,63.8146659 L158.818628,39.8240422 Z" id="Fill-25" fill="#11354E"></path>
                    <polygon id="Fill-27" fill="#11354E" points="176.405513 11.2150171 170.579325 11.2150171 170.579325 6.79347794 187.423348 6.79347794 187.423348 11.2150171 181.597159 11.2150171 181.597159 63.7640352 176.405513 63.7640352"></polygon>
                    <polygon id="Fill-29" fill="#11354E" points="205.141535 6.79339932 210.336318 6.79339932 210.336318 63.7639566 205.141535 63.7639566 205.141535 36.3817042 197.348968 36.3817042 197.348968 63.7639566 192.151832 63.7639566 192.151832 6.79339932 197.348968 6.79339932 197.348968 31.9648821 205.141535 31.9648821"></polygon>
                    <polygon id="Fill-31" fill="#11354E" points="214.973816 6.79339932 228.751012 6.79339932 228.751012 11.2149385 220.170168 11.2149385 220.170168 31.9648821 228.35805 31.9648821 228.35805 36.3817042 220.170168 36.3817042 220.170168 59.3471345 228.751012 59.3471345 228.751012 63.7639566 214.973816 63.7639566"></polygon>
                    <g id="Group-35" transform="translate(441.591853, 0.000000)">
                        <mask id="mask-2" fill="white">
                            <use xlink:href="#path-1"></use>
                        </mask>
                        <g id="Clip-34"></g>
                        <path d="M53.1961312,31.7252511 C52.7255182,37.7592683 48.1809655,45.1997816 34.8963452,54.5373742 C21.6125093,45.1997816 17.0726627,37.7592683 16.6020497,31.7252511 L16.6020497,29.6284792 C17.1056056,23.3240122 21.2501373,20.0330159 24.8354239,19.6847332 C25.4268275,19.6241965 25.9782291,19.5990384 26.4919816,19.5990384 C30.6341602,19.5990384 32.6225001,21.3907681 34.8963452,24.1109895 C37.1725433,21.3907681 39.1569614,19.5990384 43.2960027,19.5990384 C43.8175987,19.5990384 44.3690003,19.6241965 44.9580509,19.6847332 C48.5433375,20.0330159 52.6870848,23.3240122 53.1961312,29.6284792 L53.1961312,31.7252511 Z M34.7904573,0.504027162 C15.8694621,0.504027162 0.528263078,15.8787818 0.528263078,34.8417129 C0.528263078,53.8101473 15.8694621,69.1849019 34.7904573,69.1849019 C53.7098837,69.1849019 69.0487297,53.8101473 69.0487297,34.8417129 C69.0487297,15.8787818 53.7098837,0.504027162 34.7904573,0.504027162 L34.7904573,0.504027162 Z" id="Fill-33" fill="#EC3332" mask="url(#mask-2)"></path>
                    </g>
                    <path d="M486.549826,19.6844188 C485.960775,19.623882 485.409373,19.5987239 484.887777,19.5987239 C480.748736,19.5987239 478.765102,21.3904536 476.488904,24.1114613 C474.215059,21.3904536 472.225935,19.5987239 468.083756,19.5987239 C467.570788,19.5987239 467.019387,19.623882 466.427199,19.6844188 C462.841912,20.0327014 458.69738,23.3236977 458.193824,29.6281647 L458.193824,31.7249366 C458.665222,37.75974 463.204284,45.1994671 476.488904,54.5370597 C489.77274,45.1994671 494.317293,37.75974 494.787906,31.7249366 L494.787906,29.6281647 C494.279644,23.3236977 490.135112,20.0327014 486.549826,19.6844188" id="Fill-36" fill="#FFFFFF"></path>
                </g>
            </g>
        </g>
    </g>
</svg>